<?xml version="1.0" encoding="UTF-8"?>
<svg width="20px" height="20px" viewBox="0 0 20 20" version="1.1" xmlns="http://www.w3.org/2000/svg" xmlns:xlink="http://www.w3.org/1999/xlink">
    <!-- Generator: Sketch 47 (45396) - http://www.bohemiancoding.com/sketch -->
    <title>instagram</title>
    <desc>Created with Sketch.</desc>
    <defs>
        <linearGradient x1="50%" y1="99.7089109%" x2="50%" y2="0.776721582%" id="linearGradient-1">
            <stop stop-color="#E09B3D" offset="0%"></stop>
            <stop stop-color="#C74C4D" offset="30%"></stop>
            <stop stop-color="#C21975" offset="60%"></stop>
            <stop stop-color="#7024C4" offset="100%"></stop>
        </linearGradient>
        <linearGradient x1="50%" y1="146.098873%" x2="50%" y2="-45.1596833%" id="linearGradient-2">
            <stop stop-color="#E09B3D" offset="0%"></stop>
            <stop stop-color="#C74C4D" offset="30%"></stop>
            <stop stop-color="#C21975" offset="60%"></stop>
            <stop stop-color="#7024C4" offset="100%"></stop>
        </linearGradient>
        <linearGradient x1="50%" y1="658.140556%" x2="50%" y2="-140.029283%" id="linearGradient-3">
            <stop stop-color="#E09B3D" offset="0%"></stop>
            <stop stop-color="#C74C4D" offset="30%"></stop>
            <stop stop-color="#C21975" offset="60%"></stop>
            <stop stop-color="#7024C4" offset="100%"></stop>
        </linearGradient>
    </defs>
    <g id="Page-1" stroke="none" stroke-width="1" fill="none" fill-rule="evenodd">
        <g id="Desktop-HD-Copy" transform="translate(-437.000000, -1303.000000)" fill-rule="nonzero">
            <g id="instagram" transform="translate(437.000000, 1303.000000)">
                <path d="M14.0418922,0 L5.95810785,0 C2.67279333,0 0,2.67279333 0,5.95810785 L0,14.0418922 C0,17.3272067 2.67279333,20 5.95810785,20 L14.0418922,20 C17.3272067,20 20,17.3272067 20,14.0418922 L20,5.95810785 C19.9999637,2.67279333 17.3271704,0 14.0418922,0 Z M17.9880007,14.0418922 C17.9880007,16.2212495 16.2212495,17.9880007 14.0418922,17.9880007 L5.95810785,17.9880007 C3.77875049,17.9880007 2.01199926,16.2212495 2.01199926,14.0418922 L2.01199926,5.95810785 C2.01199926,3.7787142 3.77875049,2.01199926 5.95810785,2.01199926 L14.0418922,2.01199926 C16.2212495,2.01199926 17.9880007,3.7787142 17.9880007,5.95810785 L17.9880007,14.0418922 L17.9880007,14.0418922 Z" id="Shape" fill="url(#linearGradient-1)"></path>
                <path d="M9.76744186,4.65116279 C6.94632105,4.65116279 4.65116279,6.9463291 4.65116279,9.76742391 C4.65116279,12.5885187 6.94632105,14.8837209 9.76744186,14.8837209 C12.5885627,14.8837209 14.8837209,12.5885546 14.8837209,9.76742391 C14.8837209,6.9462932 12.5885627,4.65116279 9.76744186,4.65116279 Z M9.76744186,12.8937008 C8.04085877,12.8937008 6.6412118,11.494049 6.6412118,9.76745981 C6.6412118,8.04087067 8.04089467,6.64121878 9.76744186,6.64121878 C11.4940249,6.64121878 12.8936719,8.04087067 12.8936719,9.76745981 C12.8936719,11.4940131 11.493989,12.8937008 9.76744186,12.8937008 Z" id="Shape" fill="url(#linearGradient-2)"></path>
                <circle id="Oval" fill="url(#linearGradient-3)" cx="15.1162791" cy="4.88372093" r="1.1627907"></circle>
            </g>
        </g>
    </g>
</svg>
