<?xml version="1.0" encoding="UTF-8"?>
<svg width="25px" height="20px" viewBox="0 0 25 20" version="1.1" xmlns="http://www.w3.org/2000/svg" xmlns:xlink="http://www.w3.org/1999/xlink">
    <!-- Generator: Sketch 47 (45396) - http://www.bohemiancoding.com/sketch -->
    <title>twitter</title>
    <desc>Created with Sketch.</desc>
    <defs></defs>
    <g id="Page-1" stroke="none" stroke-width="1" fill="none" fill-rule="evenodd">
        <g id="Desktop-HD-Copy" transform="translate(-472.000000, -1303.000000)" fill-rule="nonzero" fill="#65BBF2">
            <g id="twitter" transform="translate(472.000000, 1303.000000)">
                <path d="M17.4493633,0 C14.5520129,0.0434663704 12.2692327,2.52172713 12.2692327,5.39128204 L12.2692327,6.08693758 C7.08910213,5.17390178 4.54294867,3.7825907 1.73337306,0.869569426 C0.0652119841,4.0869521 1.90897154,6.78259312 3.92832957,8.26088535 C2.56742917,8.26088535 1.42606351,8.08697146 0.548071137,7.30438318 C0.460296336,7.26091681 0.372472662,7.30438318 0.416360062,7.39136433 C1.16264136,10.0870053 3.70879482,12.0435245 5.68426545,12.6087325 C3.8843933,12.6087325 2.69909137,12.8695791 1.42601464,12.0869908 C1.33823984,12.0435245 1.25041617,12.0869908 1.29430357,12.1739236 C2.26007075,14.8260982 4.19165397,15.6522013 7.00122958,15.6522013 C5.59644178,16.6956846 3.70879482,17.7391679 0.152937913,17.8261006 C0.0212268385,17.8261006 -0.066547963,18.0000145 0.0651631117,18.0869473 C1.38212724,19.1738969 4.63072347,20 9.19623496,20 C16.7030331,20 22.8050435,13.3913208 22.8050435,5.21736815 L22.8050435,4.78260764 C23.9903454,4.34784713 24.648803,3.30436382 25,2.26088051 C25,2.21741414 24.9561126,2.17394777 24.9121763,2.17394777 L22.4099103,3.04351719 C22.3660229,3.04351719 22.3221355,2.95658445 22.3660229,2.91306968 C23.4197115,2.08696662 24.2098802,1.04348331 24.5610771,0.0434663704 C24.5610771,0.0434663704 24.5171897,0 24.4732534,0 C23.2879515,0.478275285 22.1465859,0.956502167 21.2685935,1.2173972 C21.1368824,1.26086357 20.9612839,1.26086357 20.8296217,1.17393083 C20.2589389,0.869569426 18.5468416,0 17.4493633,0" id="Shape"></path>
            </g>
        </g>
    </g>
</svg>
