<?xml version="1.0" encoding="UTF-8"?>
<svg width="36px" height="20px" viewBox="0 0 36 20" version="1.1" xmlns="http://www.w3.org/2000/svg" xmlns:xlink="http://www.w3.org/1999/xlink">
    <!-- Generator: Sketch 47 (45396) - http://www.bohemiancoding.com/sketch -->
    <title>vk</title>
    <desc>Created with Sketch.</desc>
    <defs></defs>
    <g id="Page-1" stroke="none" stroke-width="1" fill="none" fill-rule="evenodd">
        <g id="Desktop-HD-Copy" transform="translate(-514.000000, -1303.000000)" fill-rule="nonzero" fill="#436EAB">
            <g id="vk" transform="translate(514.000000, 1303.000000)">
                <path d="M30.9830382,12.7169874 C32.1772225,13.8615811 33.4375708,14.9383911 34.5086383,16.1983968 C34.9817698,16.7583379 35.4296593,17.3360879 35.7723615,17.9859013 C36.2579384,18.9096109 35.8181348,19.9260919 34.9744574,19.9812439 L29.7298618,19.978897 C28.3771935,20.0890629 27.2981104,19.5545234 26.3908002,18.6465518 C25.664685,17.9204643 24.992218,17.1477152 24.2940167,16.3971234 C24.0077753,16.0903706 23.7081745,15.8017027 23.3502848,15.5735019 C22.6343648,15.1173072 22.0128742,15.2569473 21.6037269,15.9900064 C21.1870561,16.7356283 21.092486,17.5611826 21.0515643,18.3921209 C20.9953847,19.6044985 20.6220967,19.9232618 19.3815765,19.9787589 C16.7304506,20.1014877 14.2143947,19.7077618 11.8770025,18.3948129 C9.81628912,17.2373803 8.21837145,15.6033212 6.82745323,13.753486 C4.11951504,10.1514877 2.0456533,6.19338283 0.181814453,2.12442177 C-0.237739132,1.20768377 0.0691038114,0.715595428 1.09946048,0.69813178 C2.81037004,0.66548235 4.52106867,0.667829243 6.23401729,0.695784886 C6.92940609,0.705793697 7.38974082,1.09731075 7.65826355,1.74222327 C8.58392518,3.97667292 9.71658626,6.10254425 11.1383013,8.07303742 C11.5169331,8.59763713 11.903018,9.12230587 12.4527197,9.49152744 C13.0609212,9.90037008 13.5239981,9.7648715 13.8100989,9.09973428 C13.9916453,8.67798372 14.0711686,8.22372178 14.1120903,7.77208284 C14.2476525,6.21809424 14.2655118,4.66672863 14.0277859,3.1181931 C13.8818175,2.15175618 13.3273346,1.52610199 12.3450012,1.34325138 C11.8437447,1.24999688 11.9183461,1.06687016 12.1610642,0.786002232 C12.5825865,0.30157581 12.9790777,0 13.7694584,0 L19.696646,0 C20.6297607,0.180779823 20.8369711,0.592314495 20.9647286,1.51402239 L20.9697911,7.97743602 C20.9595958,8.33423285 21.1513374,9.39316499 21.8060154,9.62930389 C22.3299828,9.7974519 22.6753569,9.38591723 22.9897936,9.05976807 C24.408907,7.58115616 25.4217559,5.83368689 26.3266051,4.02423203 C26.7281587,3.22856612 27.0734625,2.40232157 27.4080788,1.57669825 C27.656,0.96409003 28.0450381,0.662652273 28.7479503,0.675974344 L34.452529,0.680944236 C34.6217005,0.680944236 34.7928406,0.683360156 34.9566683,0.710901641 C35.917908,0.87173287 36.1813682,1.27767641 35.8844393,2.19917723 C35.4166515,3.64493263 34.5064586,4.84978632 33.6165156,6.06016211 C32.66519,7.35240307 31.6477005,8.60046721 30.7043201,9.90037008 C29.8375099,11.0876221 29.9063457,11.6859419 30.9830382,12.7169874 L30.9830382,12.7169874 Z" id="Shape"></path>
            </g>
        </g>
    </g>
</svg>
