<?xml version="1.0" encoding="UTF-8"?>
<svg width="15px" height="16px" viewBox="0 0 15 16" version="1.1" xmlns="http://www.w3.org/2000/svg" xmlns:xlink="http://www.w3.org/1999/xlink">
    <!-- Generator: Sketch 47 (45396) - http://www.bohemiancoding.com/sketch -->
    <title>arroba</title>
    <desc>Created with Sketch.</desc>
    <defs></defs>
    <g id="Page-1" stroke="none" stroke-width="1" fill="none" fill-rule="evenodd">
        <g id="Desktop-HD-Copy" transform="translate(-521.000000, -1331.000000)" fill-rule="nonzero" fill="#7C7C7C">
            <g id="arroba" transform="translate(521.000000, 1331.000000)">
                <path d="M9.92046479,9.22346875 L11.3975882,4.02453125 L10.5500845,4.02453125 L10.2558124,5.10078125 C10.1336588,4.7514375 9.94428244,4.45384375 9.68949183,4.2133125 C9.29216317,3.83890625 8.74834216,3.6493125 8.0724359,3.6493125 C7.42163472,3.6493125 6.82000151,3.8365 6.28534586,4.20559375 C5.76218522,4.5650625 5.31020164,5.03278125 4.94266803,5.59440625 C4.57881282,6.15146875 4.29474826,6.77334375 4.09936384,7.44240625 C3.90422464,8.11146875 3.80509173,8.76934375 3.80509173,9.39759375 C3.80509173,9.74853125 3.85245114,10.0970625 3.94530013,10.4314687 C4.04026419,10.7754687 4.19300981,11.084 4.400441,11.348 C4.60839329,11.6128125 4.8741578,11.8304062 5.19040836,11.9949375 C5.50926446,12.161875 5.89378003,12.2464062 6.33374749,12.2464062 C6.69836904,12.2464062 7.04260611,12.182125 7.35729335,12.0552187 C7.66542078,11.9306875 7.9450406,11.7755 8.18937841,11.5922812 C8.43448256,11.4082812 8.65028211,11.1952187 8.83129012,10.9594687 C8.86556056,10.9149375 8.89878878,10.870125 8.93122002,10.8255937 C8.97778246,11.2226562 9.13052808,11.5351875 9.38844532,11.7607812 C9.75830859,12.0826562 10.2328224,12.246375 10.7996334,12.246375 C11.4726582,12.246375 12.0805754,12.1015625 12.6063416,11.81625 C13.1300233,11.532 13.5736385,11.1370625 13.9257229,10.6413125 C14.2738836,10.1493125 14.5430506,9.5594375 14.7256219,8.8874375 C14.9076721,8.21915625 15,7.49303125 15,6.72771875 C15,5.77278125 14.818195,4.872 14.4601026,4.04959375 C14.1025314,3.22959375 13.5942989,2.50878125 12.9484636,1.908 C12.3041915,1.30959375 11.5315127,0.83653125 10.6515777,0.501875 C9.77136691,0.1690625 8.79701968,0 7.75594011,0 C6.66753177,0 5.64214672,0.2090625 4.70755687,0.6210625 C3.77293637,1.0330625 2.94557192,1.60478125 2.24876007,2.32159375 C1.55139646,3.0391875 0.996325686,3.89225 0.598997023,4.85653125 C0.201392479,5.82240625 0,6.87359375 0,7.9789375 C0,9.08428125 0.190418582,10.133875 0.565799449,11.0989375 C0.942191878,12.0648125 1.47948372,12.9208125 2.16167392,13.6448125 C2.84542744,14.3709375 3.67959693,14.9514688 4.64008885,15.3688125 C5.60211345,15.7877187 6.68138708,16 7.84722577,16 C9.11351547,16 10.2924431,15.7266562 11.3518228,15.1869375 C12.4077998,14.648 13.3238444,13.91575 14.0732574,13.0093437 L14.1985376,12.8581562 L13.5942989,12.3248125 L13.4658614,12.48 C12.8184627,13.261875 11.995543,13.9149375 11.020644,14.4226562 C10.0504656,14.9271875 8.98296287,15.182375 7.84722577,15.182375 C6.81451456,15.182375 5.85690405,14.9911875 4.99998978,14.6151875 C4.14175742,14.238375 3.39574695,13.7167812 2.78341572,13.0650625 C2.16949052,12.4125313 1.68768124,11.641875 1.35129143,10.7730625 C1.01438051,9.90346875 0.843304185,8.96371875 0.843304185,7.9789375 C0.843304185,7.049875 1.01726192,6.142125 1.360702,5.28053125 C1.70414208,4.4189375 2.18674835,3.64665625 2.79438962,2.986125 C3.40227611,2.32665625 4.13522826,1.79465625 4.97280026,1.40453125 C5.81037227,1.0151875 6.74263247,0.817875 7.74496621,0.817875 C8.65656605,0.817875 9.51452253,0.96828125 10.2948034,1.26428125 C11.073521,1.56028125 11.7572745,1.9786875 12.3282851,2.5066875 C12.8985293,3.0355 13.3505128,3.6666875 13.6725262,4.38109375 C13.9932215,5.09628125 14.1559295,5.88590625 14.1559295,6.72803125 C14.1559295,7.3344375 14.0889519,7.92884375 13.9568667,8.49603125 C13.8263447,9.05521875 13.6215191,9.5605625 13.3479073,9.99921875 C13.0797825,10.4293437 12.7298132,10.7795 12.3076247,11.0402812 C11.8901568,11.297875 11.3806062,11.4288125 10.7931042,11.4288125 C10.4831376,11.4288125 10.2186912,11.3504062 10.0081027,11.1962813 C9.81532381,11.053625 9.72140196,10.8 9.72140196,10.4192188 C9.72140196,10.2640313 9.7410201,10.0722813 9.78025638,9.849625 C9.81976855,9.62371875 9.86685209,9.4130625 9.92046479,9.22346875 Z M9.51869139,7.77253125 C9.37299604,8.345875 9.15483618,8.9130625 8.87049575,9.45971875 C8.58851562,10.00025 8.23382576,10.4733125 7.81660308,10.8658438 C7.41351159,11.24425 6.96229434,11.42825 6.43576183,11.42825 C5.81270193,11.42825 5.37193748,11.2458438 5.08839403,10.8706563 C4.79620634,10.484 4.64815068,9.996 4.64815068,9.41865625 C4.64815068,8.8970625 4.72846245,8.33546875 4.88669502,7.7509375 C5.04416125,7.16828125 5.27433722,6.62453125 5.57020331,6.134125 C5.86211512,5.65171875 6.22676732,5.24584375 6.65392169,4.9293125 C7.06722074,4.62290625 7.54430941,4.4671875 8.0724359,4.4671875 C8.367505,4.4671875 8.62146797,4.5173125 8.82709061,4.614375 C9.03295848,4.71384375 9.19747498,4.8455625 9.32931502,5.01625 C9.46351537,5.19090625 9.5655297,5.39625 9.63327359,5.6271875 C9.70285669,5.8653125 9.73764823,6.11678125 9.73764823,6.37278125 C9.73761758,6.72934375 9.66386563,7.2 9.51869139,7.77253125 Z" id="Shape"></path>
            </g>
        </g>
    </g>
</svg>
