<?xml version="1.0" encoding="UTF-8"?>
<svg width="51px" height="60px" viewBox="0 0 51 60" version="1.1" xmlns="http://www.w3.org/2000/svg" xmlns:xlink="http://www.w3.org/1999/xlink">
    <!-- Generator: Sketch 47 (45396) - http://www.bohemiancoding.com/sketch -->
    <title>buyer</title>
    <desc>Created with Sketch.</desc>
    <defs>
        <linearGradient x1="0%" y1="12.9445371%" x2="100%" y2="98.5733056%" id="linearGradient-1">
            <stop stop-color="#FFF400" offset="0%"></stop>
            <stop stop-color="#F5A32D" offset="100%"></stop>
        </linearGradient>
    </defs>
    <g id="Page-1" stroke="none" stroke-width="1" fill="none" fill-rule="evenodd">
        <g id="Desktop-HD-Copy" transform="translate(-139.000000, -483.000000)" fill-rule="nonzero" fill="url(#linearGradient-1)">
            <g id="buyer" transform="translate(139.000000, 483.000000)">
                <path d="M46.4835165,42.5806452 C46.4835165,41.1396774 45.8375893,39.8583871 44.8343201,38.9709677 C45.2613874,38.3506452 45.5151099,37.6006452 45.5151099,36.7925806 L45.5151099,36.2748387 C45.5151099,35.8596774 45.4482898,35.4503226 45.3165865,35.0564516 L41.1998901,22.7129032 C40.1433585,19.5464516 37.1897184,17.4193548 33.8506525,17.4193548 L30.6452266,17.4193548 C32.6236813,15.8216129 33.8942308,13.38 33.8942308,10.6451613 L33.8942308,7.50387097 C33.8942308,3.36580645 30.5251442,0 26.385206,0 L23.9719368,0 C19.8310302,0 16.4629121,3.36580645 16.4629121,7.50387097 L16.4629121,10.6451613 C16.4629121,13.38 17.7334615,15.8216129 19.7119162,17.4193548 L16.5064904,17.4193548 C13.1674245,17.4193548 10.2137843,19.5464516 9.15725275,22.7129032 L5.04055632,35.0554839 C4.90885302,35.4493548 4.84203297,35.8596774 4.84203297,36.273871 L4.84203297,36.7916129 C4.84203297,37.6006452 5.09478709,38.3506452 5.5228228,38.9709677 C4.51955357,39.8583871 3.87362637,41.1396774 3.87362637,42.5806452 L0,42.5806452 L0,58.0645161 L15.4945055,58.0645161 L15.4945055,60 L24.2101648,60 L25.1785714,60 L34.8626374,60 L34.8626374,58.0645161 L50.3571429,58.0645161 L50.3571429,42.5806452 L46.4835165,42.5806452 Z M44.5467033,42.5806452 L38.7362637,42.5806452 C38.7362637,41.6177419 39.2136882,40.7680645 39.9380563,40.2396774 C40.4609959,40.5 41.0459135,40.6451613 41.6598832,40.6451613 C42.2670742,40.6451613 42.8345604,40.4912903 43.3458791,40.2406452 C44.0702473,40.7690323 44.5467033,41.6177419 44.5467033,42.5806452 Z M43.4795192,35.6690323 C43.5453709,35.8645161 43.5782967,36.0687097 43.5782967,36.273871 L43.5782967,36.7916129 C43.5782967,37.2522581 43.4078571,37.6703226 43.1357349,38.0012903 C42.6621841,37.8474194 42.1663599,37.7419355 41.6414835,37.7419355 C41.123386,37.7419355 40.6343407,37.8454839 40.1656319,37.9964516 C40.0484547,37.8503226 39.9506456,37.6858065 39.8780151,37.5048387 L36.2542376,28.4516129 L40.3844918,26.3883871 L43.4795192,35.6690323 Z M38.474794,38.9496774 C37.4569986,39.8370968 36.7994505,41.1280645 36.7994505,42.5806452 L34.8626374,42.5806452 L34.8626374,30.1877419 L38.0787157,38.223871 C38.1833036,38.4851613 38.3217857,38.7232258 38.474794,38.9496774 Z M18.3997253,7.50290323 C18.3997253,4.43322581 20.8991827,1.93548387 23.9719368,1.93548387 L26.385206,1.93548387 C29.4579602,1.93548387 31.9574176,4.43322581 31.9574176,7.50387097 L31.9574176,7.8783871 C31.4315728,7.43516129 30.9589904,6.92032258 30.5609753,6.32322581 C29.9411951,5.39322581 28.905,4.83870968 27.7864904,4.83870968 L22.5696841,4.83870968 C21.4521429,4.83870968 20.4149794,5.39322581 19.7632418,6.37258065 C19.3845948,6.94064516 18.9197596,7.44387097 18.3997253,7.88032258 L18.3997253,7.50290323 L18.3997253,7.50290323 Z M18.3997253,10.6451613 L18.3997253,10.23 C19.5840865,9.53225806 20.6144712,8.58483871 21.409533,7.39451613 C21.6680975,7.00645161 22.1019437,6.77419355 22.5706525,6.77419355 L27.7874588,6.77419355 C28.2551992,6.77419355 28.6900137,7.00645161 28.9824725,7.44580645 C29.7465453,8.59064516 30.7740247,9.53322581 31.9574176,10.23 L31.9574176,10.6451613 C31.9574176,14.3796774 28.9156525,17.4193548 25.1785714,17.4193548 C21.4414904,17.4193548 18.3997253,14.3796774 18.3997253,10.6451613 Z M28.8139698,19.3548387 C28.2794093,20.4793548 26.8597253,21.2903226 25.1785714,21.2903226 C23.4974176,21.2903226 22.0777335,20.4793548 21.5431731,19.3548387 L25.1785714,19.3548387 L28.8139698,19.3548387 Z M6.77884615,36.2748387 C6.77884615,36.0687097 6.81177198,35.8645161 6.87762363,35.6690323 L9.9726511,26.3883871 L14.1029052,28.4525806 L10.4791277,37.5048387 C10.4064973,37.6858065 10.3086882,37.8512903 10.1905426,37.9974194 C9.7228022,37.8454839 9.23375687,37.7419355 8.71565934,37.7419355 C8.19078297,37.7419355 7.69495879,37.8474194 7.22140797,38.0022581 C6.94928571,37.6712903 6.77884615,37.2532258 6.77884615,36.7925806 L6.77884615,36.2748387 Z M7.01126374,40.2406452 C7.52355082,40.4912903 8.09006868,40.6451613 8.69725962,40.6451613 C9.3112294,40.6451613 9.89614698,40.5 10.4181181,40.2396774 C11.1434547,40.7680645 11.6208791,41.6177419 11.6208791,42.5806452 L5.81043956,42.5806452 C5.81043956,41.6177419 6.2868956,40.7690323 7.01126374,40.2406452 Z M15.4945055,56.1290323 L1.93681319,56.1290323 L1.93681319,44.516129 L3.87362637,44.516129 L3.87362637,46.4516129 L5.81043956,46.4516129 L5.81043956,44.516129 L11.6208791,44.516129 L11.6208791,46.4516129 L13.5576923,46.4516129 L13.5576923,44.516129 L15.4945055,44.516129 L15.4945055,56.1290323 Z M15.4945055,42.5806452 L13.5576923,42.5806452 C13.5576923,41.1270968 12.9001442,39.8370968 11.8813805,38.9496774 C12.0343887,38.7232258 12.1728709,38.4851613 12.2784272,38.2229032 L15.4945055,30.1867742 L15.4945055,42.5806452 Z M24.2101648,58.0645161 L17.4313187,58.0645161 L17.4313187,56.1290323 L24.2101648,56.1290323 L24.2101648,58.0645161 Z M32.9258242,58.0645161 L26.146978,58.0645161 L26.146978,56.1290323 L32.9258242,56.1290323 L32.9258242,58.0645161 Z M32.9258242,54.1935484 L26.146978,54.1935484 L26.146978,43.5483871 L24.2101648,43.5483871 L24.2101648,54.1935484 L17.4313187,54.1935484 L17.4313187,44.4183871 C19.6383173,43.9683871 21.3049451,42.0135484 21.3049451,39.6774194 L29.0521978,39.6774194 C29.0521978,42.0135484 30.7188255,43.9683871 32.9258242,44.4183871 L32.9258242,54.1935484 Z M17.4313187,42.4025806 L17.4313187,39.6774194 L19.3681319,39.6774194 C19.3681319,40.9374194 18.5556387,42.0019355 17.4313187,42.4025806 Z M32.9258242,42.4025806 C31.8005357,42.0019355 30.989011,40.9374194 30.989011,39.6774194 L32.9258242,39.6774194 L32.9258242,42.4025806 Z M32.9258242,24.1935484 L32.9258242,37.7419355 L17.4313187,37.7419355 L17.4313187,24.1935484 L15.4945055,24.1935484 L15.4945055,24.9745161 L14.8243681,26.6477419 L10.5904945,24.5322581 L10.9933516,23.3245161 C11.7864766,20.9496774 14.0021909,19.3548387 16.5064904,19.3548387 L19.4853091,19.3548387 C20.0247115,21.5603226 22.3721291,23.2258065 25.1785714,23.2258065 C27.9850137,23.2258065 30.3314629,21.5603226 30.8718338,19.3548387 L33.8506525,19.3548387 C36.3549519,19.3548387 38.5706662,20.9496774 39.3628228,23.3254839 L39.7656799,24.5332258 L35.5318063,26.6487097 L34.8626374,24.9745161 L34.8626374,24.1935484 L32.9258242,24.1935484 Z M48.4203297,56.1290323 L34.8626374,56.1290323 L34.8626374,44.516129 L36.7994505,44.516129 L36.7994505,46.4516129 L38.7362637,46.4516129 L38.7362637,44.516129 L44.5467033,44.516129 L44.5467033,46.4516129 L46.4835165,46.4516129 L46.4835165,44.516129 L48.4203297,44.516129 L48.4203297,56.1290323 Z" id="Shape"></path>
            </g>
        </g>
    </g>
</svg>
