<?xml version="1.0" encoding="UTF-8"?>
<svg width="23px" height="25px" viewBox="0 0 23 25" version="1.1" xmlns="http://www.w3.org/2000/svg" xmlns:xlink="http://www.w3.org/1999/xlink">
    <!-- Generator: Sketch 47 (45396) - http://www.bohemiancoding.com/sketch -->
    <title>Shape</title>
    <desc>Created with Sketch.</desc>
    <defs></defs>
    <g id="Page-1" stroke="none" stroke-width="1" fill="none" fill-rule="evenodd">
        <g id="новости,услуги,инновации" transform="translate(-106.000000, -228.000000)" fill-rule="nonzero" fill="#5F6D74">
            <g id="calendar-with-spring-binder-and-date-blocks" transform="translate(106.000000, 228.000000)">
                <path d="M22.4749643,4.1016545 C22.1251826,3.74822872 21.710189,3.5714914 21.2310485,3.5714914 L19.4620002,3.5714914 L19.4620002,2.23215769 C19.4620002,1.61843893 19.2452566,1.0929178 18.8122051,0.655789772 C18.3789114,0.218661741 17.8585234,0 17.2501694,0 L16.3657663,0 C15.7574608,0 15.2368791,0.218661741 14.8037791,0.655838635 C14.3705339,1.0929178 14.1539839,1.61848779 14.1539839,2.23220655 L14.1539839,3.57154026 L8.84650018,3.57154026 L8.84650018,2.23220655 C8.84650018,1.61848779 8.62985337,1.09296667 8.19670499,0.655838635 C7.76365343,0.218661741 7.24302331,0 6.6347178,0 L5.75016944,0 C5.14200917,0 4.62133063,0.218661741 4.18818225,0.655838635 C3.75513069,1.0929178 3.53843547,1.61848779 3.53843547,2.23220655 L3.53843547,3.57154026 L1.76933877,3.57154026 C1.29005309,3.57154026 0.875446765,3.74827758 0.525277742,4.10170336 C0.175108718,4.45508028 0,4.87373811 0,5.35733482 L0,23.2144498 C0,23.6977044 0.175108718,24.1162645 0.525277742,24.4698858 C0.875398352,24.8232138 1.29000467,25 1.76933877,25 L21.2307096,25 C21.7098501,25 22.1248921,24.8232627 22.4746254,24.4698858 C22.8248429,24.1164111 23,23.6976556 23,23.2144498 L23,5.35728596 C22.9999516,4.87354266 22.8249881,4.45508028 22.4749643,4.1016545 Z M5.75002421,23.2142054 L1.76933877,23.2142054 L1.76933877,19.1962043 L5.75002421,19.1962043 L5.75002421,23.2142054 Z M5.75002421,18.3035758 L1.76933877,18.3035758 L1.76933877,13.8395536 L5.75002421,13.8395536 L5.75002421,18.3035758 Z M5.75002421,12.9462898 L1.76933877,12.9462898 L1.76933877,8.92863076 L5.75002421,8.92863076 L5.75002421,12.9462898 Z M5.4392147,6.56390786 C5.35163614,6.47551477 5.30791947,6.37109463 5.30791947,6.25006108 L5.30791947,2.23235314 C5.30791947,2.11146618 5.35163614,2.00675286 5.4392147,1.91850636 C5.52679327,1.83011326 5.6302512,1.78599001 5.75016944,1.78599001 L6.6347178,1.78599001 C6.7544908,1.78599001 6.85823921,1.83011326 6.94567254,1.91850636 C7.0332511,2.00680172 7.07706459,2.11146618 7.07706459,2.23235314 L7.07706459,6.25006108 C7.07706459,6.37114349 7.03305745,6.47556363 6.94567254,6.56390786 C6.8581908,6.65230096 6.75463604,6.69642421 6.6347178,6.69642421 L5.75016944,6.69642421 C5.63039644,6.69647307 5.52679327,6.65230096 5.4392147,6.56390786 Z M11.0577984,23.2142054 L6.63457256,23.2142054 L6.63457256,19.1962043 L11.0577984,19.1962043 L11.0577984,23.2142054 Z M11.0577984,18.3035758 L6.63457256,18.3035758 L6.63457256,13.8395536 L11.0577984,13.8395536 L11.0577984,18.3035758 Z M11.0577984,12.9462898 L6.63457256,12.9462898 L6.63457256,8.92863076 L11.0577984,8.92863076 L11.0577984,12.9462898 Z M16.3657663,23.2142054 L11.9425889,23.2142054 L11.9425889,19.1962043 L16.3657663,19.1962043 L16.3657663,23.2142054 Z M16.3657663,18.3035758 L11.9425889,18.3035758 L11.9425889,13.8395536 L16.3657663,13.8395536 L16.3657663,18.3035758 Z M16.3657663,12.9462898 L11.9425889,12.9462898 L11.9425889,8.92863076 L16.3657663,8.92863076 L16.3657663,12.9462898 Z M16.0546179,6.56390786 C15.9671362,6.47551477 15.9235648,6.37109463 15.9235648,6.25006108 L15.9235648,2.23235314 C15.9235648,2.11146618 15.9671362,2.00675286 16.0546179,1.91850636 C16.1421481,1.83011326 16.2457997,1.78599001 16.3657663,1.78599001 L17.2501694,1.78599001 C17.3701361,1.78599001 17.4736909,1.83011326 17.5613178,1.91850636 C17.648848,2.00680172 17.692371,2.11146618 17.692371,2.23235314 L17.692371,6.25006108 C17.692371,6.37114349 17.6486543,6.47556363 17.5613178,6.56390786 C17.4738361,6.65230096 17.3701361,6.69642421 17.2501694,6.69642421 L16.3657663,6.69642421 C16.2458481,6.69647307 16.1418092,6.65230096 16.0546179,6.56390786 Z M21.2307096,23.2142054 L17.2498306,23.2142054 L17.2498306,19.1962043 L21.2307096,19.1962043 L21.2307096,23.2142054 Z M21.2307096,18.3035758 L17.2498306,18.3035758 L17.2498306,13.8395536 L21.2307096,13.8395536 L21.2307096,18.3035758 Z M21.2307096,12.9462898 L17.2498306,12.9462898 L17.2498306,8.92863076 L21.2307096,8.92863076 L21.2307096,12.9462898 Z" id="Shape"></path>
            </g>
        </g>
    </g>
</svg>
