<?xml version="1.0" encoding="UTF-8"?>
<svg width="60px" height="60px" viewBox="0 0 60 60" version="1.1" xmlns="http://www.w3.org/2000/svg" xmlns:xlink="http://www.w3.org/1999/xlink">
    <!-- Generator: Sketch 47 (45396) - http://www.bohemiancoding.com/sketch -->
    <title>calendar-with-a-clock-time-tools</title>
    <desc>Created with Sketch.</desc>
    <defs>
        <linearGradient x1="0%" y1="12.9445371%" x2="100%" y2="98.5733056%" id="linearGradient-1">
            <stop stop-color="#FFF400" offset="0%"></stop>
            <stop stop-color="#F5A32D" offset="100%"></stop>
        </linearGradient>
    </defs>
    <g id="Page-1" stroke="none" stroke-width="1" fill="none" fill-rule="evenodd">
        <g id="Desktop-HD-Copy" transform="translate(-560.000000, -483.000000)" fill-rule="nonzero" fill="url(#linearGradient-1)">
            <g id="calendar-with-a-clock-time-tools" transform="translate(560.000000, 483.000000)">
                <path d="M7.49995363,9.37518162 L7.49995363,1.87501159 C7.49995363,0.838518341 8.33847543,0 9.37522026,0 C10.4114705,0 11.2499923,0.838518341 11.2499923,1.87501159 L11.2499923,9.37518162 C11.2499923,10.4114276 10.4114705,11.2499459 9.37522026,11.2499459 C8.33847543,11.2500696 7.49995363,10.4114276 7.49995363,9.37518162 Z M39.3754058,11.2500696 C40.4114086,11.2500696 41.2504251,10.4115512 41.2504251,9.37530528 L41.2504251,1.87501159 C41.2504251,0.838518341 40.4114086,0 39.3754058,0 C38.3389082,0 37.4997681,0.838518341 37.4997681,1.87501159 L37.4997681,9.37518162 C37.4997681,10.4114276 38.3389082,11.2500696 39.3754058,11.2500696 Z M60,44.9995363 C60,53.2840629 53.2839115,60 44.9999691,60 C36.7166449,60 30.0000618,53.2840629 30.0000618,44.9995363 C30.0000618,36.7162463 36.7165213,29.9999382 44.9999691,29.9999382 C53.2839115,29.9999382 60,36.7161226 60,44.9995363 Z M56.250456,44.9995363 C56.250456,38.7967758 51.2039917,33.749714 45.0000927,33.749714 C38.7966885,33.749714 33.7502241,38.7966522 33.7502241,44.9995363 C33.7502241,51.2035333 38.7966885,56.2498532 45.0000927,56.2498532 C51.2039917,56.2498532 56.250456,51.2035333 56.250456,44.9995363 Z M15.0001546,22.5000155 L7.49995363,22.5000155 L7.49995363,29.9999382 L15.0001546,29.9999382 L15.0001546,22.5000155 Z M7.49995363,41.2500077 L15.0001546,41.2500077 L15.0001546,33.749714 L7.49995363,33.749714 L7.49995363,41.2500077 Z M18.7499459,29.9999382 L26.2502705,29.9999382 L26.2502705,22.5000155 L18.7499459,22.5000155 L18.7499459,29.9999382 Z M18.7499459,41.2500077 L26.2502705,41.2500077 L26.2502705,33.749714 L18.7499459,33.749714 L18.7499459,41.2500077 Z M3.7501623,44.6267103 L3.7501623,18.7498686 L45.0000927,18.7498686 L45.0000927,26.2500386 L48.750255,26.2500386 L48.750255,11.6237611 C48.750255,9.3458749 46.9334784,7.49992271 44.6889704,7.49992271 L43.1250734,7.49992271 L43.1250734,9.37530528 C43.1250734,11.4405014 41.4438255,13.1252048 39.3755294,13.1252048 C37.3066151,13.1252048 35.6254908,11.4405014 35.6254908,9.37530528 L35.6254908,7.49992271 L13.1248879,7.49992271 L13.1248879,9.37530528 C13.1248879,11.4405014 11.444011,13.1252048 9.37534392,13.1252048 C7.30618226,13.1252048 5.62518162,11.4405014 5.62518162,9.37530528 L5.62518162,7.49992271 L4.06313954,7.49992271 C1.81850782,7.49992271 0,9.3458749 0,11.6237611 L0,44.626834 C0,46.8971771 1.81850782,48.7503014 4.06313954,48.7503014 L26.2502705,48.7503014 L26.2502705,44.9996599 L4.06313954,44.9996599 C3.89323408,44.9995363 3.7501623,44.824067 3.7501623,44.6267103 Z M37.4997681,29.9999382 L37.4997681,22.5000155 L30.0001855,22.5000155 L30.0001855,29.9999382 L37.4997681,29.9999382 Z M50.6251507,44.9995363 L44.9999691,44.9995363 L44.9999691,39.3743779 C44.9999691,38.3385029 44.1614473,37.4999845 43.1249498,37.4999845 C42.0884522,37.4999845 41.2504251,38.3385029 41.2504251,39.3743779 L41.2504251,46.8751662 C41.2504251,47.9111648 42.0884522,48.7501778 43.1249498,48.7501778 L50.6251507,48.7501778 C51.6616482,48.7501778 52.50017,47.9111648 52.50017,46.8751662 C52.50017,45.8386729 51.6616482,44.9995363 50.6251507,44.9995363 Z" id="Shape"></path>
            </g>
        </g>
    </g>
</svg>
