<?xml version="1.0" encoding="UTF-8" standalone="no"?>
<svg width="152px" height="33px" viewBox="0 0 152 33" version="1.1" xmlns="http://www.w3.org/2000/svg" xmlns:xlink="http://www.w3.org/1999/xlink">
    <!-- Generator: Sketch 39.1 (31720) - http://www.bohemiancoding.com/sketch -->
    <title>logo</title>
    <desc>Created with Sketch.</desc>
    <defs></defs>
    <g id="Symbols" stroke="none" stroke-width="1" fill="none" fill-rule="evenodd">
        <g id="header" transform="translate(-150.000000, -85.000000)" fill="#005596">
            <g id="logo" transform="translate(150.000000, 85.000000)">
                <path d="M14.9085176,26.0198104 C10.6038379,26.0198104 9.08781176,22.8138851 9.08781176,16.1360642 C9.08781176,9.69269104 10.7697464,6.88424328 14.1127529,6.88424328 C16.6917856,6.88424328 18.1164131,8.90167612 18.5798641,11.2702881 L26.7307399,11.2702881 C26.0457464,5.89128806 21.9159163,0.95409403 14.4664261,0.95409403 C7.17390327,0.95409403 9.93464055e-05,5.69919851 9.93464055e-05,16.6916463 C9.93464055e-05,27.4417657 7.41134118,31.9494672 13.2385046,31.9494672 C20.5215895,31.9494672 24.9449882,28.938094 26.9964915,21.9544075 L20.1107922,21.9544075 C19.2271059,24.1654075 17.4562562,26.0198104 14.9085176,26.0198104" id="Fill-1"></path>
                <path d="M56.7329569,10.1287343 C56.7329569,6.24901791 54.7827869,1.50736119 44.7363817,1.50736119 L30.2963817,1.50736119 L30.2963817,31.3979731 L38.9102118,31.3979731 L38.9102118,19.1421672 L42.8214797,19.1421672 L47.0894013,31.3979731 L56.652983,31.3979731 L51.0354405,17.6389433 C54.3829176,16.3337194 56.7329569,13.8419731 56.7329569,10.1287343 M43.3768261,13.4484358 L38.9102118,13.4484358 L38.9102118,7.19961493 L43.7434144,7.19961493 C46.4034144,7.19961493 47.6462379,8.54424179 47.6462379,10.4424806 C47.6462379,12.3781522 45.8495582,13.4484358 43.3768261,13.4484358" id="Fill-3"></path>
                <polygon id="Fill-5" points="69.6960235 19.256091 78.6992915 19.256091 78.6992915 13.0919866 69.6960235 13.0919866 69.6960235 7.67210597 83.769932 7.67210597 83.769932 1.50701642 61.0807033 1.50701642 61.0807033 31.3981209 84.2085464 31.3981209 84.2085464 24.9897179 69.6960235 24.9897179"></polygon>
                <polygon id="Fill-7" points="96.3274667 24.9880925 96.3274667 19.2559433 105.334708 19.2559433 105.334708 13.0933164 96.3274667 13.0933164 96.3274667 7.67245075 110.400878 7.67245075 110.400878 1.50588358 87.7215843 1.50588358 87.7215843 31.3999433 110.840983 31.3999433 110.840983 24.9880925"></polygon>
                <g id="Group-2" transform="translate(118.000000, 0.000000)">
                    <polygon id="Fill-9" points="17.2069307 0 8.63532288 8.49922388 25.779532 8.49922388"></polygon>
                    <polygon id="Fill-12" points="8.40786928 24.1795433 17.2069804 32.9023791 26.0041046 24.1795433"></polygon>
                    <polygon id="Fill-14" points="4.06389804 13.0315522 0.616081046 16.4502537 3.83937516 19.6468209 30.5754797 19.6468209 33.7972837 16.4502537 30.3524471 13.0315522"></polygon>
                </g>
                <path d="M145.230337,31.3980224 L145.230337,28.9668582 L144.296978,28.9668582 L144.296978,28.5417985 L146.650494,28.5417985 L146.650494,28.9668582 L145.70869,28.9668582 L145.70869,31.3980224 L145.230337,31.3980224 Z M146.970886,31.3980224 L146.970886,28.5417985 L147.676742,28.5417985 L148.404952,30.824709 L149.109814,28.5417985 L149.803252,28.5417985 L149.803252,31.3980224 L149.364638,31.3980224 L149.364638,29.0028134 L148.62103,31.3980224 L148.185893,31.3980224 L147.414965,28.9668582 L147.414965,31.3980224 L146.970886,31.3980224 Z" id="Fill-16"></path>
            </g>
        </g>
    </g>
</svg>
