<?xml version="1.0" encoding="UTF-8"?>
<svg width="60px" height="60px" viewBox="0 0 60 60" version="1.1" xmlns="http://www.w3.org/2000/svg" xmlns:xlink="http://www.w3.org/1999/xlink">
    <!-- Generator: Sketch 47 (45396) - http://www.bohemiancoding.com/sketch -->
    <title>customer-support</title>
    <desc>Created with Sketch.</desc>
    <defs>
        <linearGradient x1="0%" y1="12.9445371%" x2="100%" y2="98.5733056%" id="linearGradient-1">
            <stop stop-color="#FFF400" offset="0%"></stop>
            <stop stop-color="#F5A32D" offset="100%"></stop>
        </linearGradient>
    </defs>
    <g id="Page-1" stroke="none" stroke-width="1" fill="none" fill-rule="evenodd">
        <g id="Desktop-HD-Copy" transform="translate(-139.000000, -842.000000)" fill-rule="nonzero" fill="url(#linearGradient-1)">
            <g id="customer-support" transform="translate(139.000000, 842.000000)">
                <path d="M59.6825397,26.7742936 C59.6825397,12.0109127 47.6922144,0 32.9542805,0 C22.0116494,0 12.5855223,6.6220655 8.45531492,16.0750342 C8.29530963,16.0574147 8.1348788,16.045479 7.97402242,16.045479 C5.5911068,16.045479 3.76664934,17.966992 2.15709261,19.6622942 C1.87679966,19.9574197 1.61211006,20.2363467 1.35224331,20.4966596 C-0.457461879,22.3087616 -0.450369446,26.2789602 1.37139288,31.1169158 C3.37812586,36.4460843 7.3413774,42.2445833 12.5313361,47.4438795 C21.7831312,56.7107074 30.572216,59.9994316 35.2875491,60 C35.2879747,60 35.2884002,60 35.2888258,60 C37.1121484,60 38.5445362,59.5306694 39.4312322,58.6425931 C39.6913826,58.3818539 39.9699734,58.1164256 40.2650186,57.8353672 C42.0037994,56.1788562 43.9745029,54.3013918 43.8718044,51.8288452 C43.8635772,51.6319054 43.8407396,51.4358181 43.8062704,51.2401572 C53.1516856,47.064067 59.6825397,37.6693562 59.6825397,26.7742936 Z M40.9674531,47.0437478 C40.8587971,46.95153 40.7484388,46.85917 40.6335414,46.7665259 C38.1161532,44.7400068 36.1567977,43.7960882 34.4672383,43.7960882 C32.4097235,43.7960882 31.0587569,45.1694094 29.6284969,46.6234391 C29.4770025,46.777467 29.3229549,46.9340526 29.1652192,47.0919171 C28.969468,47.2881464 28.7223676,47.3796538 28.3880304,47.3796538 C28.3878885,47.3796538 28.3878885,47.3796538 28.3877467,47.3796538 C27.1886999,47.3796538 24.6174093,46.2353852 19.1775132,40.7855805 C16.7168645,38.3205648 14.9163795,36.2190209 13.8259889,34.539491 C13.1347603,33.474794 12.0931656,31.5706163 12.8818442,30.7802994 C13.0388706,30.6230033 13.1947623,30.4692595 13.3482426,30.3177892 C15.9551372,27.7453518 18.206701,25.523598 13.2052591,19.2935649 C13.0456794,19.0944937 12.8863833,18.9080687 12.727371,18.7276116 C15.93003,10.6776614 23.7892968,4.97322746 32.9542805,4.97322746 C44.954819,4.97322746 54.7178366,14.7531503 54.7178366,26.7742936 C54.7178366,35.9622603 49.014102,43.840421 40.9674531,47.0437478 Z" id="Shape"></path>
                <path d="M28.7668176,28.0735453 C29.8791303,26.8523163 30.6905473,25.8473214 31.1786389,25.087001 C31.6935332,24.2846628 31.9546481,23.3960026 31.9546481,22.4456021 C31.9546481,21.0408672 31.4871523,19.8972424 30.5648567,19.0464553 C29.6522947,18.2045291 28.3928492,17.7777778 26.8213635,17.7777778 C25.2227931,17.7777778 23.928645,18.2749873 22.9748915,19.2558292 C22.0198684,20.2378145 21.5536422,21.4526122 21.589191,22.8667796 L21.5904606,22.9202307 L21.7074051,23.2752374 L25.1308174,23.2752374 L25.1308174,22.917944 C25.1308174,22.2383719 25.2814769,21.6945713 25.578846,21.3015485 C25.8580175,20.9325359 26.2644313,20.7531746 26.8213635,20.7531746 C27.3186245,20.7531746 27.686386,20.9040953 27.945667,21.2145118 C28.2199011,21.542793 28.3532093,21.9618268 28.3532093,22.495909 C28.3532093,22.8965064 28.2237099,23.3452669 27.9682377,23.8297568 C27.6978124,24.3426873 27.229188,24.9881021 26.5833836,25.7388471 L21.8171552,30.9160289 L21.8171552,33.3333333 L32.3809524,33.3333333 L32.3809524,30.3577936 L26.695955,30.3577936 L28.7668176,28.0735453 Z" id="Shape"></path>
                <path d="M43.1004005,17.7777778 L39.583311,17.7777778 L33.3333333,27.6719592 L33.4974785,29.8627183 L39.453685,29.8627183 L39.453685,33.015873 L43.1002572,33.015873 L43.1002572,29.8627183 L44.7619048,29.8627183 L44.7619048,26.9079752 L43.1002572,26.9079752 L43.1002572,17.7777778 L43.1004005,17.7777778 Z M37.087044,26.9079752 L39.4538282,23.183713 L39.4538282,26.9079752 L37.087044,26.9079752 L37.087044,26.9079752 Z" id="Shape"></path>
            </g>
        </g>
    </g>
</svg>
