<?xml version="1.0" encoding="UTF-8"?>
<svg width="20px" height="15px" viewBox="0 0 20 15" version="1.1" xmlns="http://www.w3.org/2000/svg" xmlns:xlink="http://www.w3.org/1999/xlink">
    <!-- Generator: Sketch 47 (45396) - http://www.bohemiancoding.com/sketch -->
    <title>envelope</title>
    <desc>Created with Sketch.</desc>
    <defs></defs>
    <g id="Page-1" stroke="none" stroke-width="1" fill="none" fill-rule="evenodd">
        <g id="Desktop-HD-Copy" transform="translate(-519.000000, -1412.000000)" fill-rule="nonzero" fill="#7C7C7C">
            <g id="envelope" transform="translate(519.000000, 1412.000000)">
                <path d="M17.3589143,0 L2.41789261,0 C1.08416505,0 0,1.08075041 0,2.41027732 L0,12.5897227 C0,13.9192496 1.08416505,15 2.41789261,15 L17.3548231,15 C18.6885507,15 19.7727157,13.9192496 19.7727157,12.5897227 L19.7727157,2.41435563 C19.7768069,1.08482871 18.6926419,0 17.3589143,0 Z M18.6721859,12.5897227 C18.6721859,13.3115824 18.0830547,13.8988581 17.3589143,13.8988581 L2.41789261,13.8988581 C1.69375219,13.8988581 1.10462099,13.3115824 1.10462099,12.5897227 L1.10462099,2.41435563 C1.10462099,1.69249592 1.69375219,1.10522023 2.41789261,1.10522023 L17.3548231,1.10522023 C18.0789635,1.10522023 18.6680947,1.69249592 18.6680947,2.41435563 L18.6680947,12.5897227 L18.6721859,12.5897227 Z" id="Shape"></path>
                <path d="M12.6585099,7.36956651 L17.533753,3.01656822 C17.7606044,2.81123811 17.7812273,2.46217693 17.5749987,2.23220721 C17.3687702,2.00634409 17.0181816,1.98581108 16.7872056,2.19114119 L10.0641547,8.19910015 L8.75254104,7.03282514 C8.74841647,7.02871853 8.7442919,7.02461193 8.7442919,7.02050533 C8.7154199,6.99175912 8.68654791,6.9671195 8.65355134,6.94247989 L3.31635627,2.18703459 C3.08538028,1.98170448 2.73479174,2.00223749 2.52856318,2.23220721 C2.32233462,2.46217693 2.34295748,2.81123811 2.57393346,3.01656822 L7.50692056,7.40652593 L2.59455632,11.9853873 C2.37182948,12.1948241 2.35945576,12.5438852 2.56980889,12.7697484 C2.68117231,12.8847332 2.82965687,12.9463323 2.97814143,12.9463323 C3.11425228,12.9463323 3.25036313,12.897053 3.35760198,12.7984946 L8.3442085,8.15392753 L9.69706784,9.35716196 C9.80430669,9.45161381 9.93629296,9.49678643 10.0682792,9.49678643 C10.2002655,9.49678643 10.3363764,9.44750721 10.4394906,9.35305536 L11.8294711,8.11286151 L16.7872056,12.8026012 C16.8944445,12.9052662 17.0346799,12.9545455 17.1707908,12.9545455 C17.3192753,12.9545455 17.4636353,12.897053 17.5749987,12.7820682 C17.7853519,12.5603116 17.7771027,12.2071439 17.5543759,11.9977072 L12.6585099,7.36956651 Z" id="Shape"></path>
            </g>
        </g>
    </g>
</svg>
