<?xml version="1.0" encoding="UTF-8"?>
<svg width="60px" height="60px" viewBox="0 0 60 60" version="1.1" xmlns="http://www.w3.org/2000/svg" xmlns:xlink="http://www.w3.org/1999/xlink">
    <!-- Generator: Sketch 47 (45396) - http://www.bohemiancoding.com/sketch -->
    <title>Group</title>
    <desc>Created with Sketch.</desc>
    <defs>
        <linearGradient x1="0%" y1="12.9445371%" x2="100%" y2="98.5733056%" id="linearGradient-1">
            <stop stop-color="#FFF400" offset="0%"></stop>
            <stop stop-color="#F5A32D" offset="100%"></stop>
        </linearGradient>
    </defs>
    <g id="Page-1" stroke="none" stroke-width="1" fill="none" fill-rule="evenodd">
        <g id="Desktop-HD-Copy" transform="translate(-981.000000, -483.000000)" fill-rule="nonzero" fill="url(#linearGradient-1)">
            <g id="Group" transform="translate(981.000000, 483.000000)">
                <g id="diploma-2">
                    <path d="M35.8871555,14.4444444 L15.1129619,14.4444444 C14.4986144,14.4444444 14,14.9416814 14,15.5555556 C14,16.1694297 14.4986144,16.6666667 15.1129619,16.6666667 L35.8870381,16.6666667 C36.5013856,16.6666667 37,16.1694297 37,15.5555556 C37,14.9415638 36.5013856,14.4444444 35.8871555,14.4444444 Z" id="Shape"></path>
                    <path d="M26.8946786,23.3333333 L15.1053214,23.3333333 C14.4951915,23.3333333 14,23.8305703 14,24.4444444 C14,25.0583186 14.4951915,25.5555556 15.1053214,25.5555556 L26.8946786,25.5555556 C27.5048085,25.5555556 28,25.0583186 28,24.4444444 C28,23.8304527 27.5048085,23.3333333 26.8946786,23.3333333 Z" id="Shape"></path>
                    <path d="M38,32.2222222 C35.2376235,32.2222222 33,34.4604122 33,37.2226496 C33,39.9832996 35.2377452,42.2222222 38,42.2222222 C40.7622548,42.2222222 43,39.9840322 43,37.2226496 C43,34.4604122 40.7622548,32.2222222 38,32.2222222 Z M38,39.9138255 C36.5153094,39.9138255 35.3077204,38.7059037 35.3077204,37.221917 C35.3077204,35.7370755 36.5153094,34.5300085 38,34.5300085 C39.4846906,34.5300085 40.6922796,35.7370755 40.6922796,37.221917 C40.6922796,38.7059037 39.4846906,39.9138255 38,39.9138255 Z" id="Shape"></path>
                    <path d="M57.0371427,0 L2.96297454,0 C1.33324479,0 0,1.47377964 0,3.2762795 L0,46.8591448 C0,48.6608645 1.33324479,50.1352943 2.96297454,50.1352943 L28.735603,50.1352943 L27.0400138,55.0725991 L27.04142,55.0684381 C26.9695839,55.2754486 26.9221229,55.5048246 26.9214198,55.7579964 C26.9139198,56.1466612 27.0636857,56.6276486 27.3813816,56.9415452 C27.6947416,57.2620734 28.0894299,57.3746809 28.4146258,57.3714301 C28.5272432,57.3714301 28.6361106,57.3592071 28.7406421,57.3385321 L31.5110772,56.7894081 L31.6161946,56.8206157 L31.6643587,56.8510431 L33.4081121,59.2987604 C33.5354952,59.4771639 33.6933471,59.6438646 33.8984256,59.7762369 C34.1005744,59.907699 34.3592077,60.0005417 34.6362395,59.9998915 C34.987334,60.0047027 35.3362018,59.8412528 35.5689367,59.6135672 C35.8067106,59.3866619 35.9497968,59.1172361 36.0415548,58.8515813 L38.3519108,52.1232194 L40.6622669,58.8515813 C40.7541421,59.1161959 40.896408,59.3851015 41.1340647,59.6135672 C41.3665652,59.8404726 41.7155502,60.0048327 42.0667618,59.9998915 C42.3444968,60.0008017 42.6023098,59.907829 42.8053961,59.7762369 C43.0090684,59.6447748 43.1669202,59.4785943 43.293483,59.301101 L43.2948892,59.2986304 L45.0371192,56.8541639 L45.1142287,56.8081326 L45.1919242,56.789278 L47.9629452,57.338402 C48.0674767,57.358947 48.1763441,57.3713001 48.2889615,57.3713001 C48.6134543,57.3745509 49.0089629,57.2611632 49.3222057,56.9414152 C49.6399016,56.6258281 49.7888472,56.145751 49.7814644,55.7578663 C49.7806441,55.5054748 49.7341206,55.2785694 49.6645111,55.0740295 L49.6636907,55.0723391 L47.9681015,50.1350342 L57.0370255,50.1350342 C58.666638,50.1350342 60,48.6604744 60,46.8588848 L60,3.2762795 C60.0001172,1.47377964 58.6667552,0 57.0371427,0 Z M34.3985828,56.7172405 L33.3977996,55.3141981 L33.3969793,55.3125077 C33.1429163,54.9623322 32.8451423,54.7428387 32.5317823,54.5826396 C32.217016,54.4272516 31.8813904,54.3327186 31.5073272,54.330378 C31.3895535,54.330378 31.2673267,54.3410406 31.1399436,54.3665268 L29.5511124,54.6814637 L32.1280706,47.1781127 C33.5451046,48.240862 35.2050688,48.9370519 36.9969863,49.1483535 L34.3985828,56.7172405 Z M38.1482386,46.7612309 C33.4504169,46.7612309 29.6297454,42.5349396 29.6297454,37.340172 C29.6297454,32.1463145 33.4504169,27.9200232 38.1482386,27.9200232 C42.8460602,27.9200232 46.6667318,32.1463145 46.6667318,37.340172 C46.6667318,42.5348096 42.8459431,46.7612309 38.1482386,46.7612309 Z M27.7519292,40.2761584 L8.88892361,40.2761584 L8.88892361,9.01002868 L51.1111936,9.01002868 L51.1111936,40.2761584 L48.5445479,40.2761584 C48.7615796,39.3351188 48.8889627,38.3553297 48.8889627,37.340172 C48.8889627,30.7812414 44.0822736,25.4624235 38.1481214,25.4624235 C32.2139692,25.4624235 27.4072801,30.7812414 27.4072801,37.340172 C27.4073973,38.3562399 27.5347803,39.3357689 27.7519292,40.2761584 Z M45.5629406,54.3665268 C45.4362606,54.3418208 45.3140338,54.3312882 45.1962601,54.3312882 C44.8221969,54.3337588 44.4873916,54.4273817 44.171805,54.5835498 C43.858445,54.7430987 43.5613741,54.9632424 43.306608,55.3141981 L43.3057877,55.3151083 L42.3058248,56.7172405 L39.6843353,49.0839877 C41.4642997,48.8012988 43.0998889,48.040093 44.4850478,46.9166189 L47.1523577,54.6822439 L45.5629406,54.3665268 Z M57.7778863,46.8590148 C57.7778863,47.3028131 57.4386278,47.6776946 57.0371427,47.6776946 L47.1252874,47.6776946 L46.2482544,45.1255618 C46.8194274,44.3998547 47.3105612,43.5984691 47.7097026,42.7337581 L52.5926808,42.7337581 C53.0001426,42.7337581 53.3334245,42.3655083 53.3334245,41.9150783 L53.3334245,7.37201896 C53.3334245,6.92158904 53.0001426,6.55242896 52.5926808,6.55242896 L7.40743634,6.55242896 C6.99997461,6.55242896 6.66669271,6.92145901 6.66669271,7.37201896 L6.66669271,41.9144282 C6.66669271,42.3648581 6.99997461,42.733108 7.40743634,42.733108 L28.5867746,42.733108 C29.0520099,43.7399437 29.6422845,44.6604383 30.3355671,45.4758673 L29.5792375,47.6778246 L2.96297454,47.6778246 C2.56148938,47.6778246 2.2222309,47.3029431 2.2222309,46.8591448 L2.2222309,3.2762795 C2.2222309,2.8324812 2.56148938,2.45668949 2.96297454,2.45668949 L57.0371427,2.45668949 C57.4386278,2.45668949 57.7778863,2.83222113 57.7778863,3.2762795 L57.7778863,46.8590148 Z" id="Shape"></path>
                </g>
            </g>
        </g>
    </g>
</svg>
