<?xml version="1.0" encoding="UTF-8"?>
<svg width="58px" height="60px" viewBox="0 0 58 60" version="1.1" xmlns="http://www.w3.org/2000/svg" xmlns:xlink="http://www.w3.org/1999/xlink">
    <!-- Generator: Sketch 47 (45396) - http://www.bohemiancoding.com/sketch -->
    <title>package</title>
    <desc>Created with Sketch.</desc>
    <defs>
        <linearGradient x1="0%" y1="12.9445371%" x2="100%" y2="98.5733056%" id="linearGradient-1">
            <stop stop-color="#FFF400" offset="0%"></stop>
            <stop stop-color="#F5A32D" offset="100%"></stop>
        </linearGradient>
    </defs>
    <g id="Page-1" stroke="none" stroke-width="1" fill="none" fill-rule="evenodd">
        <g id="Desktop-HD-Copy" transform="translate(-560.000000, -842.000000)" fill-rule="nonzero" fill="url(#linearGradient-1)">
            <g id="package" transform="translate(560.000000, 842.000000)">
                <path d="M57.2164872,15.5265411 L45.4419093,0.590753425 C45.1465819,0.218321918 44.7100108,0 44.2349188,0 L13.3154168,0 C12.8403248,0 12.4037537,0.218321918 12.1084263,0.590753425 L0.333848444,15.5265411 C0.115562923,15.7962329 0,16.130137 0,16.4768836 L0,58.4589041 C0,59.3065068 0.693377537,60 1.54083897,60 L55.9966563,60 C56.8441177,60 57.5374953,59.3065068 57.5374953,58.4589041 L57.5374953,16.4768836 C57.5503356,16.130137 57.4347727,15.7962329 57.2164872,15.5265411 Z M53.0305413,15.192637 L30.3160068,15.192637 L30.3160068,3.08219178 L43.49018,3.08219178 L53.0305413,15.192637 Z M14.0601556,3.08219178 L27.2343288,3.08219178 L27.2343288,15.192637 L4.51979432,15.192637 L14.0601556,3.08219178 Z M3.08167794,56.9178082 L3.08167794,18.2748288 L54.4558173,18.2748288 L54.4558173,56.9178082 L3.08167794,56.9178082 L3.08167794,56.9178082 Z" id="Shape"></path>
                <path d="M35.8624084,30.6037302 L25.631316,40.9011435 L21.3810861,36.6233624 C20.7829999,36.0213992 19.8158817,36.0213992 19.2177955,36.6233624 C18.6197092,37.2253256 18.6197092,38.1987129 19.2177955,38.8006761 L24.5496707,44.1671141 C24.8423512,44.4616919 25.2368336,44.6153846 25.631316,44.6153846 C26.0257984,44.6153846 26.4075556,44.4616919 26.7129614,44.1671141 L38.0129738,32.7938517 C38.61106,32.1918885 38.61106,31.2185012 38.0129738,30.616538 C37.4276128,30.001767 36.4604946,30.001767 35.8624084,30.6037302 Z" id="Shape"></path>
            </g>
        </g>
    </g>
</svg>
