<?xml version="1.0" encoding="UTF-8"?>
<svg width="18px" height="17px" viewBox="0 0 18 17" version="1.1" xmlns="http://www.w3.org/2000/svg" xmlns:xlink="http://www.w3.org/1999/xlink">
    <!-- Generator: Sketch 47 (45396) - http://www.bohemiancoding.com/sketch -->
    <title>profile</title>
    <desc>Created with Sketch.</desc>
    <defs></defs>
    <g id="Page-1" stroke="none" stroke-width="1" fill="none" fill-rule="evenodd">
        <g id="Desktop-HD-Copy" transform="translate(-521.000000, -1246.000000)" fill-rule="nonzero" fill="#7C7C7C">
            <g id="profile" transform="translate(521.000000, 1246.000000)">
                <path d="M8.5,9 C10.9846787,9 13,6.981557 13,4.49309633 C13,2.00463566 10.9846488,0 8.5,0 C6.01535115,0 4,2.018443 4,4.49309633 C4,6.96774965 6.01532131,9 8.5,9 Z M8.5,1.17511888 C10.3220758,1.17511888 11.812895,2.66819528 11.812895,4.49309633 C11.812895,6.31799737 10.3220758,7.81104389 8.5,7.81104389 C6.67792418,7.81104389 5.18710503,6.31796748 5.18710503,4.49306644 C5.18710503,2.6681654 6.67789434,1.17511888 8.5,1.17511888 Z" id="Shape"></path>
                <path d="M0.635461371,17 L17.3645386,17 C17.7192162,17 18,16.7057569 18,16.3340778 C18,12.8495617 15.2955753,10 11.9556573,10 L6.04434269,10 C2.71921623,10 0,12.8340611 0,16.3340778 C0,16.7057569 0.280783771,17 0.635461371,17 Z M6.04434269,11.3318443 L11.9556573,11.3318443 C14.3792982,11.3318443 16.3743677,13.2212407 16.6847346,15.6681222 L1.31526543,15.6681222 C1.62560034,13.2367413 3.62070177,11.3318443 6.04434269,11.3318443 Z" id="Shape"></path>
            </g>
        </g>
    </g>
</svg>
