<?xml version="1.0" encoding="UTF-8"?>
<svg width="63px" height="60px" viewBox="0 0 63 60" version="1.1" xmlns="http://www.w3.org/2000/svg" xmlns:xlink="http://www.w3.org/1999/xlink">
    <!-- Generator: Sketch 47 (45396) - http://www.bohemiancoding.com/sketch -->
    <title>star</title>
    <desc>Created with Sketch.</desc>
    <defs>
        <linearGradient x1="0%" y1="12.9445371%" x2="100%" y2="98.5733056%" id="linearGradient-1">
            <stop stop-color="#FFF400" offset="0%"></stop>
            <stop stop-color="#F5A32D" offset="100%"></stop>
        </linearGradient>
    </defs>
    <g id="Page-1" stroke="none" stroke-width="1" fill="none" fill-rule="evenodd">
        <g id="Desktop-HD-Copy" transform="translate(-981.000000, -842.000000)" fill-rule="nonzero" fill="url(#linearGradient-1)">
            <g id="star" transform="translate(981.000000, 842.000000)">
                <path d="M12.7238128,59.9972678 C12.4904541,59.9972678 12.2570954,59.9251326 12.0609388,59.7819895 C11.713719,59.5295165 11.5401092,59.1023413 11.6133861,58.6796745 L15.097984,38.371381 L0.340018474,23.9905665 C0.0333828753,23.6907548 -0.0770961271,23.2432916 0.0548022737,22.8364044 C0.187828011,22.4283901 0.540684417,22.1308326 0.965690375,22.0688415 L21.3592124,19.1056656 L30.4804941,0.62892817 C30.6698866,0.243456066 31.0621998,0 31.4905878,0 L31.4905878,0 C31.9201031,0 32.3124163,0.243456066 32.5006815,0.62892817 L41.6208359,19.1056656 L62.0154852,22.0688415 C62.4404912,22.1308326 62.7922203,22.427263 62.9263733,22.8364044 C63.0582717,23.2432916 62.9489201,23.691882 62.6411571,23.9905665 L47.8831916,38.3736353 L51.3666622,58.6808016 C51.4388118,59.1034684 51.2652019,59.5306436 50.9191095,59.7831166 C50.5718898,60.0378438 50.1108091,60.07053 49.7308966,59.8687771 L31.4905878,50.2815674 L13.2480244,59.8687771 C13.0834332,59.9544375 12.9030593,59.9972678 12.7238128,59.9972678 Z M3.54954623,23.9702785 L17.0956247,37.1721345 C17.3605489,37.430243 17.4823012,37.804444 17.4191704,38.1696281 L14.220916,56.8097967 L30.9663762,48.0093108 C31.2944312,47.8357356 31.6856171,47.8357356 32.0159267,48.0093108 L48.7591323,56.8097967 L45.5620052,38.1696281 C45.4988744,37.804444 45.6206267,37.4313701 45.8855509,37.1721345 L59.4316294,23.9702785 L40.7122025,21.2505586 C40.3446907,21.1975844 40.0279091,20.9665266 39.8633179,20.6340287 L31.4905878,3.67551033 L23.1178577,20.6351558 C22.9532665,20.9676537 22.6364849,21.1987115 22.2689731,21.2516857 L3.54954623,23.9702785 Z" id="Shape"></path>
            </g>
        </g>
    </g>
</svg>
