<svg xmlns="http://www.w3.org/2000/svg" viewBox="0 0 380 429.29"><defs><style>.cls-1{fill:#fff422;}</style></defs><title>logo</title><g id="Слой_2" data-name="Слой 2"><g id="Слой_1-2" data-name="Слой 1"><rect class="cls-1" width="380" height="380"/><text></text><path d="M159.59,397.43q3,3.72,3,9.91t-3,9.9a9.84,9.84,0,0,1-8.05,3.73,10.24,10.24,0,0,1-5-1.18,7.62,7.62,0,0,1-3.24-3.24h-.39v12.74h-4.2V394.18h4v4.4h.39a9.38,9.38,0,0,1,3.5-3.57,9.69,9.69,0,0,1,4.92-1.29A9.85,9.85,0,0,1,159.59,397.43Zm-3.37,17.14a13.81,13.81,0,0,0,0-14.45,6.77,6.77,0,0,0-5.65-2.62,6.87,6.87,0,0,0-5.67,2.65,13.34,13.34,0,0,0,0,14.37,7.4,7.4,0,0,0,11.32.05Z"/><path d="M168.3,420.5V394.18h4v3.91h.39a5.5,5.5,0,0,1,2.64-3.15,9,9,0,0,1,4.66-1.22c.34,0,.71,0,1.11,0s.73.05,1,.08V398a8.16,8.16,0,0,0-1.15-.16c-.6-.05-1.11-.08-1.54-.08a7,7,0,0,0-5,1.8,6,6,0,0,0-1.95,4.59V420.5Z"/><path d="M188.38,417.32q-3.25-3.66-3.26-10t3.26-10a12.64,12.64,0,0,1,17.75,0q3.26,3.63,3.26,10t-3.26,10a12.61,12.61,0,0,1-17.75,0ZM203,414.59q2-2.58,2-7.25t-2-7.26a7.73,7.73,0,0,0-11.53,0q-2,2.58-2,7.26t2,7.25a7.71,7.71,0,0,0,11.53,0Z"/><path d="M216.76,417.25q-3-3.71-3-9.91t3-9.91a9.85,9.85,0,0,1,8-3.71,10,10,0,0,1,4.94,1.22,8.07,8.07,0,0,1,3.31,3.39h.37v-14.6h4.2V420.5h-4v-4.2h-.39a8.78,8.78,0,0,1-3.46,3.43,10.09,10.09,0,0,1-5,1.24A9.84,9.84,0,0,1,216.76,417.25Zm3.4-17.12a13.77,13.77,0,0,0,0,14.44,7.4,7.4,0,0,0,11.31,0,13.42,13.42,0,0,0,0-14.37,7.34,7.34,0,0,0-11.29,0Z"/><path d="M266.18,394.18V420.5h-4v-4.12h-.39a7.23,7.23,0,0,1-3.05,3.39,10.09,10.09,0,0,1-5.11,1.2c-2.94,0-5.18-.85-6.7-2.54s-2.28-4.1-2.28-7.21v-17h4.2v16a8.18,8.18,0,0,0,1.4,5.24q1.41,1.69,4.56,1.69a7,7,0,0,0,5.33-1.95,7.57,7.57,0,0,0,1.84-5.42V394.18Z"/><path d="M295,402.24h-4.25a6.3,6.3,0,0,0-2.23-3.34,7,7,0,0,0-4.56-1.4,6.78,6.78,0,0,0-5.62,2.64,11.16,11.16,0,0,0-2.09,7.11,11.47,11.47,0,0,0,2.1,7.25,6.76,6.76,0,0,0,5.61,2.68,7.81,7.81,0,0,0,4.44-1.19,5.73,5.73,0,0,0,2.35-3.42H295a9.49,9.49,0,0,1-3.42,6A11.4,11.4,0,0,1,284,421a11.16,11.16,0,0,1-8.8-3.73q-3.29-3.72-3.29-10t3.28-9.84a12.59,12.59,0,0,1,16.44-1.19A9.87,9.87,0,0,1,295,402.24Z"/><path d="M302,387.37h4.2v6.81h5.86v3.52h-5.86v14.89a5,5,0,0,0,.93,3.37,3.76,3.76,0,0,0,3,1.05l1,0,1-.08v3.54c-.41.08-.82.15-1.22.19s-.83.06-1.25.06q-4,0-5.82-1.64T302,413.67v-16h-4.25v-3.52H302Z"/><path d="M317.67,388a2.9,2.9,0,1,1,2.06.87A2.8,2.8,0,0,1,317.67,388Zm0,32.53V394.18h4.2V420.5Z"/><path d="M330.88,417.32q-3.25-3.66-3.26-10t3.26-10a12.64,12.64,0,0,1,17.75,0q3.25,3.63,3.26,10t-3.26,10a12.61,12.61,0,0,1-17.75,0Zm14.64-2.73q2-2.58,2-7.25t-2-7.26a7.73,7.73,0,0,0-11.53,0q-2,2.58-2,7.26t2,7.25a7.71,7.71,0,0,0,11.53,0Z"/><path d="M357.58,420.5V394.18h4v4.15h.4a7.66,7.66,0,0,1,2.94-3.39,9.22,9.22,0,0,1,5-1.22q4.44,0,6.82,2.53c1.59,1.68,2.38,4.09,2.38,7.21v17h-4.2v-16q0-3.57-1.52-5.28a6,6,0,0,0-4.68-1.71,6.6,6.6,0,0,0-5,2,7.61,7.61,0,0,0-1.88,5.45V420.5Z"/><path d="M227.67,250.14h35.85v99.44H301.7V380h-74Z"/><path d="M306.15,278.79H269.34V250H379.77v28.79H343V380H306.15Z"/></g></g></svg>
