<svg xmlns="http://www.w3.org/2000/svg" viewBox="0 0 380 424.97"><defs><style>.cls-1{fill:#fff422;}</style></defs><title>subLogo</title><g id="Слой_2" data-name="Слой 2"><g id="Слой_1-2" data-name="Слой 1"><rect class="cls-1" width="380" height="380"/><text></text><path d="M82,424.5V387.73h4.2V424.5Z"/><path d="M110.86,417.69h4.2A9.3,9.3,0,0,1,111.2,423,12.78,12.78,0,0,1,104,425a10.93,10.93,0,0,1-8.67-3.68q-3.19-3.68-3.19-9.92t3.22-9.93a10.86,10.86,0,0,1,8.64-3.72,10.47,10.47,0,0,1,8.38,3.55q3,3.56,3.05,9.68v1.61H96.48v.2a9.65,9.65,0,0,0,2.21,6.2,6.83,6.83,0,0,0,5.38,2.29,8.94,8.94,0,0,0,4.25-.91A5.77,5.77,0,0,0,110.86,417.69ZM98.75,403.55a8.73,8.73,0,0,0-2.27,5.62H111a8.35,8.35,0,0,0-2-5.62,6.53,6.53,0,0,0-5.06-2.12A6.84,6.84,0,0,0,98.75,403.55Z"/><path d="M122.77,421.25q-3-3.71-3-9.91t3-9.91a9.85,9.85,0,0,1,8-3.71,10,10,0,0,1,4.94,1.22,8.07,8.07,0,0,1,3.31,3.39h.37v-14.6h4.2V424.5h-4v-4.2h-.39a8.78,8.78,0,0,1-3.46,3.43,10.09,10.09,0,0,1-5,1.24A9.84,9.84,0,0,1,122.77,421.25Zm3.4-17.12a13.77,13.77,0,0,0,0,14.44,7.4,7.4,0,0,0,11.31,0,13.42,13.42,0,0,0,0-14.37,7.34,7.34,0,0,0-11.29,0Z"/><path d="M152.66,391.37h4.2v6.81h5.86v3.52h-5.86v14.89a5,5,0,0,0,.93,3.37,3.79,3.79,0,0,0,3,1.05l1,0,1-.08v3.54c-.41.08-.82.15-1.22.19s-.82.06-1.25.06q-4,0-5.82-1.64t-1.77-5.39v-16h-4.25v-3.52h4.25Z"/><path d="M185.6,417.69h4.2a9.26,9.26,0,0,1-3.86,5.34,12.78,12.78,0,0,1-7.23,1.94,10.89,10.89,0,0,1-8.66-3.68q-3.21-3.68-3.2-9.92t3.22-9.93a10.86,10.86,0,0,1,8.64-3.72,10.47,10.47,0,0,1,8.38,3.55q3,3.56,3,9.68v1.61H171.22v.2a9.65,9.65,0,0,0,2.21,6.2,6.84,6.84,0,0,0,5.38,2.29,8.94,8.94,0,0,0,4.25-.91A5.77,5.77,0,0,0,185.6,417.69Zm-12.11-14.14a8.73,8.73,0,0,0-2.27,5.62h14.5a8.35,8.35,0,0,0-2-5.62,6.52,6.52,0,0,0-5.05-2.12A6.87,6.87,0,0,0,173.49,403.55Z"/><path d="M196.08,424.5V387.73h4.19V424.5Z"/><path d="M225,417.69h4.2A9.26,9.26,0,0,1,225.3,423a12.75,12.75,0,0,1-7.22,1.94,10.9,10.9,0,0,1-8.67-3.68q-3.19-3.68-3.2-9.92t3.22-9.93a10.86,10.86,0,0,1,8.65-3.72,10.46,10.46,0,0,1,8.37,3.55q3,3.56,3.05,9.68v1.61H210.58v.2a9.65,9.65,0,0,0,2.21,6.2,6.84,6.84,0,0,0,5.38,2.29,8.91,8.91,0,0,0,4.25-.91A5.72,5.72,0,0,0,225,417.69Zm-12.11-14.14a8.73,8.73,0,0,0-2.27,5.62h14.5a8.3,8.3,0,0,0-2-5.62,6.52,6.52,0,0,0-5.05-2.12A6.87,6.87,0,0,0,212.85,403.55Z"/><path d="M235.19,424.5V398.18h4v4.15h.39a7.1,7.1,0,0,1,2.81-3.4,8.25,8.25,0,0,1,4.54-1.21,7.78,7.78,0,0,1,4.53,1.28,7.93,7.93,0,0,1,2.74,3.33h.39a8.18,8.18,0,0,1,3.2-3.35,9.36,9.36,0,0,1,4.86-1.26,8.29,8.29,0,0,1,6.2,2.22,8.74,8.74,0,0,1,2.17,6.37V424.5h-4.2V407.29a6.09,6.09,0,0,0-1.38-4.35,5.48,5.48,0,0,0-4.16-1.44,5.82,5.82,0,0,0-4.42,1.79,6,6,0,0,0-1.68,4.29V424.5H251V406.63a4.83,4.83,0,0,0-1.5-3.73,6.06,6.06,0,0,0-8.34.56,6.83,6.83,0,0,0-1.76,4.73V424.5Z"/><path d="M278.76,422.85a7.06,7.06,0,0,1-2.52-5.72q0-7.23,9.59-7.79l7.59-.46v-2.4q0-5-5.95-5a8.11,8.11,0,0,0-3.93.85,3.92,3.92,0,0,0-2,2.42h-4.24a7,7,0,0,1,3.27-5.09,12.34,12.34,0,0,1,7.05-1.92q4.81,0,7.41,2.33a8.18,8.18,0,0,1,2.6,6.43v18h-4v-3.88h-.39a8.68,8.68,0,0,1-3.37,3.22,9.88,9.88,0,0,1-4.74,1.13A9.59,9.59,0,0,1,278.76,422.85Zm12.53-3.46a6,6,0,0,0,2.13-4.7v-2.42l-7.08.46q-5.76.4-5.76,4.3a3.68,3.68,0,0,0,1.52,3.13,6.16,6.16,0,0,0,3.8,1.12A7.84,7.84,0,0,0,291.29,419.39Z"/><path d="M306.25,391.37h4.19v6.81h5.86v3.52h-5.86v14.89a5,5,0,0,0,.93,3.37,3.79,3.79,0,0,0,3,1.05l1,0,1-.08v3.54c-.4.08-.81.15-1.22.19s-.82.06-1.24.06q-4.05,0-5.82-1.64c-1.19-1.09-1.77-2.89-1.77-5.39v-16H302v-3.52h4.25Z"/><path d="M321.88,392a2.93,2.93,0,1,1,4.14,0,2.8,2.8,0,0,1-2.07.87A2.83,2.83,0,0,1,321.88,392Zm0,32.53V398.18h4.2V424.5Z"/><path d="M354.93,406.24h-4.25a6.24,6.24,0,0,0-2.23-3.34,7,7,0,0,0-4.55-1.4,6.8,6.8,0,0,0-5.63,2.64,11.16,11.16,0,0,0-2.09,7.11,11.47,11.47,0,0,0,2.1,7.25,6.76,6.76,0,0,0,5.62,2.68,7.8,7.8,0,0,0,4.43-1.19,5.73,5.73,0,0,0,2.35-3.42h4.25a9.44,9.44,0,0,1-3.42,6,11.4,11.4,0,0,1-7.59,2.4,11.16,11.16,0,0,1-8.8-3.73q-3.28-3.72-3.28-10t3.27-9.84a12.6,12.6,0,0,1,16.44-1.19A9.82,9.82,0,0,1,354.93,406.24Z"/><path d="M362.43,399.92a11,11,0,0,1,7-2.2,11.45,11.45,0,0,1,6.82,1.9,7.22,7.22,0,0,1,3.09,5.16H375.2a4.21,4.21,0,0,0-1.9-2.54,7.09,7.09,0,0,0-3.89-1,6.93,6.93,0,0,0-4,1.09,3.27,3.27,0,0,0-1.61,2.84,2.75,2.75,0,0,0,1.12,2.24,9.06,9.06,0,0,0,3.44,1.45l4.06,1a12.35,12.35,0,0,1,5.53,2.6,5.9,5.9,0,0,1,1.81,4.53,6.83,6.83,0,0,1-3,5.75,12.45,12.45,0,0,1-7.52,2.21,12.27,12.27,0,0,1-7.2-2,7,7,0,0,1-3.15-5.22h4.32a4.76,4.76,0,0,0,2.1,2.65,7.5,7.5,0,0,0,4.07,1,7.71,7.71,0,0,0,4.37-1.15,3.45,3.45,0,0,0,1.71-3,2.91,2.91,0,0,0-1-2.28,7.54,7.54,0,0,0-3.14-1.43l-4.52-1.1a11.76,11.76,0,0,1-5.43-2.58,6,6,0,0,1-1.75-4.54A6.7,6.7,0,0,1,362.43,399.92Z"/><path d="M227.67,250.14h35.85v99.44H301.7V380h-74Z"/><path d="M306.15,278.79H269.34V250H379.77v28.79H343V380H306.15Z"/></g></g></svg>
